<?xml version="1.0" encoding="UTF-8" standalone="no"?><svg xmlns="http://www.w3.org/2000/svg" xmlns:xlink="http://www.w3.org/1999/xlink" contentScriptType="application/ecmascript" contentStyleType="text/css" height="290px" preserveAspectRatio="none" style="width:260px;height:290px;" version="1.1" viewBox="0 0 260 290" width="260px" zoomAndPan="magnify"><defs><filter height="300%" id="fm8cg9hnvijcw" width="300%" x="-1" y="-1"><feGaussianBlur result="blurOut" stdDeviation="2.0"/><feColorMatrix in="blurOut" result="blurOut2" type="matrix" values="0 0 0 0 0 0 0 0 0 0 0 0 0 0 0 0 0 0 .4 0"/><feOffset dx="4.0" dy="4.0" in="blurOut2" result="blurOut3"/><feBlend in="SourceGraphic" in2="blurOut3" mode="normal"/></filter></defs><g><!--MD5=[1c729d752f206f4ffd352936364f22f4]
class BlockProcessor--><rect fill="#FEFECE" filter="url(#fm8cg9hnvijcw)" height="48" id="BlockProcessor" style="stroke: #A80036; stroke-width: 1.5;" width="113" x="62" y="7"/><ellipse cx="77" cy="23" fill="#ADD1B2" rx="11" ry="11" style="stroke: #A80036; stroke-width: 1.0;"/><path d="M76.3594,26.7813 Q77.1563,26.7813 77.7188,26.5938 Q78.2969,26.3906 78.5313,26.1719 Q78.7813,25.9375 79.0156,25.75 Q79.2656,25.5469 79.4844,25.5469 Q79.8281,25.5469 80.0781,25.8125 Q80.3438,26.0625 80.3438,26.3906 Q80.3438,27.125 79.1719,27.8125 Q78.0156,28.4844 76.3125,28.4844 Q74.1563,28.4844 72.7344,27.2188 Q71.3125,25.9531 71.3125,24.0156 L71.3125,22.8906 Q71.3125,20.8594 72.6406,19.4844 Q73.9688,18.0938 75.9375,18.0938 Q77.125,18.0938 78.3438,18.6719 L78.5156,18.75 Q78.8125,18.3438 79.2344,18.3438 Q79.7188,18.3438 79.8906,18.6406 Q80.0781,18.9219 80.0781,19.4688 L80.0781,20.8906 Q80.0781,22.0156 79.2344,22.0156 Q78.9219,22.0156 78.7188,21.8438 Q78.5313,21.6719 78.4844,21.5313 Q78.4531,21.375 78.4063,21.1094 Q78.2969,20.5938 77.7813,20.2813 Q77.2656,19.9688 76.8125,19.8906 Q76.375,19.7969 76,19.7969 Q74.7188,19.7969 73.8594,20.6719 Q73.0156,21.5469 73.0156,22.8906 L73.0156,23.9844 Q73.0156,25.2656 73.9219,26.0313 Q74.8281,26.7813 76.3594,26.7813 Z "/><text fill="#000000" font-family="sans-serif" font-size="12" lengthAdjust="spacingAndGlyphs" textLength="81" x="91" y="27.8">BlockProcessor</text><line style="stroke: #A80036; stroke-width: 1.5;" x1="63" x2="174" y1="39" y2="39"/><line style="stroke: #A80036; stroke-width: 1.5;" x1="63" x2="174" y1="47" y2="47"/><!--MD5=[8df6c8ff76ba76847f391595fb90fdea]
class DiagramBlock--><rect fill="#FEFECE" filter="url(#fm8cg9hnvijcw)" height="48" id="DiagramBlock" style="stroke: #A80036; stroke-width: 1.5;" width="107" x="65" y="115"/><ellipse cx="80" cy="131" fill="#ADD1B2" rx="11" ry="11" style="stroke: #A80036; stroke-width: 1.0;"/><path d="M79.3594,134.7813 Q80.1563,134.7813 80.7188,134.5938 Q81.2969,134.3906 81.5313,134.1719 Q81.7813,133.9375 82.0156,133.75 Q82.2656,133.5469 82.4844,133.5469 Q82.8281,133.5469 83.0781,133.8125 Q83.3438,134.0625 83.3438,134.3906 Q83.3438,135.125 82.1719,135.8125 Q81.0156,136.4844 79.3125,136.4844 Q77.1563,136.4844 75.7344,135.2188 Q74.3125,133.9531 74.3125,132.0156 L74.3125,130.8906 Q74.3125,128.8594 75.6406,127.4844 Q76.9688,126.0938 78.9375,126.0938 Q80.125,126.0938 81.3438,126.6719 L81.5156,126.75 Q81.8125,126.3438 82.2344,126.3438 Q82.7188,126.3438 82.8906,126.6406 Q83.0781,126.9219 83.0781,127.4688 L83.0781,128.8906 Q83.0781,130.0156 82.2344,130.0156 Q81.9219,130.0156 81.7188,129.8438 Q81.5313,129.6719 81.4844,129.5313 Q81.4531,129.375 81.4063,129.1094 Q81.2969,128.5938 80.7813,128.2813 Q80.2656,127.9688 79.8125,127.8906 Q79.375,127.7969 79,127.7969 Q77.7188,127.7969 76.8594,128.6719 Q76.0156,129.5469 76.0156,130.8906 L76.0156,131.9844 Q76.0156,133.2656 76.9219,134.0313 Q77.8281,134.7813 79.3594,134.7813 Z "/><text fill="#000000" font-family="sans-serif" font-size="12" lengthAdjust="spacingAndGlyphs" textLength="75" x="94" y="135.8">DiagramBlock</text><line style="stroke: #A80036; stroke-width: 1.5;" x1="66" x2="171" y1="147" y2="147"/><line style="stroke: #A80036; stroke-width: 1.5;" x1="66" x2="171" y1="155" y2="155"/><!--MD5=[a47f608df33cf1b2c252e40fe50bb216]
class DitaaBlock--><rect fill="#FEFECE" filter="url(#fm8cg9hnvijcw)" height="48" id="DitaaBlock" style="stroke: #A80036; stroke-width: 1.5;" width="89" x="7" y="223"/><ellipse cx="22" cy="239" fill="#ADD1B2" rx="11" ry="11" style="stroke: #A80036; stroke-width: 1.0;"/><path d="M21.3594,242.7813 Q22.1563,242.7813 22.7188,242.5938 Q23.2969,242.3906 23.5313,242.1719 Q23.7813,241.9375 24.0156,241.75 Q24.2656,241.5469 24.4844,241.5469 Q24.8281,241.5469 25.0781,241.8125 Q25.3438,242.0625 25.3438,242.3906 Q25.3438,243.125 24.1719,243.8125 Q23.0156,244.4844 21.3125,244.4844 Q19.1563,244.4844 17.7344,243.2188 Q16.3125,241.9531 16.3125,240.0156 L16.3125,238.8906 Q16.3125,236.8594 17.6406,235.4844 Q18.9688,234.0938 20.9375,234.0938 Q22.125,234.0938 23.3438,234.6719 L23.5156,234.75 Q23.8125,234.3438 24.2344,234.3438 Q24.7188,234.3438 24.8906,234.6406 Q25.0781,234.9219 25.0781,235.4688 L25.0781,236.8906 Q25.0781,238.0156 24.2344,238.0156 Q23.9219,238.0156 23.7188,237.8438 Q23.5313,237.6719 23.4844,237.5313 Q23.4531,237.375 23.4063,237.1094 Q23.2969,236.5938 22.7813,236.2813 Q22.2656,235.9688 21.8125,235.8906 Q21.375,235.7969 21,235.7969 Q19.7188,235.7969 18.8594,236.6719 Q18.0156,237.5469 18.0156,238.8906 L18.0156,239.9844 Q18.0156,241.2656 18.9219,242.0313 Q19.8281,242.7813 21.3594,242.7813 Z "/><text fill="#000000" font-family="sans-serif" font-size="12" lengthAdjust="spacingAndGlyphs" textLength="57" x="36" y="243.8">DitaaBlock</text><line style="stroke: #A80036; stroke-width: 1.5;" x1="8" x2="95" y1="255" y2="255"/><line style="stroke: #A80036; stroke-width: 1.5;" x1="8" x2="95" y1="263" y2="263"/><!--MD5=[3e4b883855ef57bb465494dd7c4ac7dc]
class PlantUmlBlock--><rect fill="#FEFECE" filter="url(#fm8cg9hnvijcw)" height="48" id="PlantUmlBlock" style="stroke: #A80036; stroke-width: 1.5;" width="110" x="131.5" y="223"/><ellipse cx="146.5" cy="239" fill="#ADD1B2" rx="11" ry="11" style="stroke: #A80036; stroke-width: 1.0;"/><path d="M145.8594,242.7813 Q146.6563,242.7813 147.2188,242.5938 Q147.7969,242.3906 148.0313,242.1719 Q148.2813,241.9375 148.5156,241.75 Q148.7656,241.5469 148.9844,241.5469 Q149.3281,241.5469 149.5781,241.8125 Q149.8438,242.0625 149.8438,242.3906 Q149.8438,243.125 148.6719,243.8125 Q147.5156,244.4844 145.8125,244.4844 Q143.6563,244.4844 142.2344,243.2188 Q140.8125,241.9531 140.8125,240.0156 L140.8125,238.8906 Q140.8125,236.8594 142.1406,235.4844 Q143.4688,234.0938 145.4375,234.0938 Q146.625,234.0938 147.8438,234.6719 L148.0156,234.75 Q148.3125,234.3438 148.7344,234.3438 Q149.2188,234.3438 149.3906,234.6406 Q149.5781,234.9219 149.5781,235.4688 L149.5781,236.8906 Q149.5781,238.0156 148.7344,238.0156 Q148.4219,238.0156 148.2188,237.8438 Q148.0313,237.6719 147.9844,237.5313 Q147.9531,237.375 147.9063,237.1094 Q147.7969,236.5938 147.2813,236.2813 Q146.7656,235.9688 146.3125,235.8906 Q145.875,235.7969 145.5,235.7969 Q144.2188,235.7969 143.3594,236.6719 Q142.5156,237.5469 142.5156,238.8906 L142.5156,239.9844 Q142.5156,241.2656 143.4219,242.0313 Q144.3281,242.7813 145.8594,242.7813 Z "/><text fill="#000000" font-family="sans-serif" font-size="12" lengthAdjust="spacingAndGlyphs" textLength="78" x="160.5" y="243.8">PlantUmlBlock</text><line style="stroke: #A80036; stroke-width: 1.5;" x1="132.5" x2="240.5" y1="255" y2="255"/><line style="stroke: #A80036; stroke-width: 1.5;" x1="132.5" x2="240.5" y1="263" y2="263"/><!--MD5=[b0552178e3adc9f8c93113ea2f4bf563]
reverse link BlockProcessor to DiagramBlock--><path d="M118.5,75.02 C118.5,88.58 118.5,103.04 118.5,114.68 " fill="none" id="BlockProcessor&lt;-DiagramBlock" style="stroke: #A80036; stroke-width: 1.0;"/><polygon fill="none" points="111.5,75,118.5,55,125.5,75,111.5,75" style="stroke: #A80036; stroke-width: 1.0;"/><!--MD5=[09f08fe5dcfd9ff1a23fb7b5f4ae8f7f]
reverse link DiagramBlock to DitaaBlock--><path d="M93.13,180.13 C84.05,194.5 74.12,210.21 66.24,222.68 " fill="none" id="DiagramBlock&lt;-DitaaBlock" style="stroke: #A80036; stroke-width: 1.0;"/><polygon fill="none" points="87.36,176.17,103.96,163,99.19,183.65,87.36,176.17" style="stroke: #A80036; stroke-width: 1.0;"/><!--MD5=[374d751c35dd1cdf893f3fa873191a24]
reverse link DiagramBlock to PlantUmlBlock--><path d="M144.25,180.13 C153.46,194.5 163.54,210.21 171.54,222.68 " fill="none" id="DiagramBlock&lt;-PlantUmlBlock" style="stroke: #A80036; stroke-width: 1.0;"/><polygon fill="none" points="138.16,183.61,133.25,163,149.95,176.05,138.16,183.61" style="stroke: #A80036; stroke-width: 1.0;"/><!--MD5=[30b82586b3de5ed8c554bc8b9c58f02b]
@startuml
class BlockProcessor
class DiagramBlock
class DitaaBlock
class PlantUmlBlock

BlockProcessor <|- - DiagramBlock
DiagramBlock <|- - DitaaBlock
DiagramBlock <|- - PlantUmlBlock
@enduml

PlantUML version 1.2020.15(Sun Jun 28 11:39:45 GMT 2020)
(GPL source distribution)
Java Runtime: OpenJDK Runtime Environment
JVM: OpenJDK 64-Bit Server VM
Default Encoding: UTF-8
Language: en
Country: US
--></g></svg>